<?xml version="1.0" standalone="no"?>
<!DOCTYPE svg PUBLIC "-//W3C//DTD SVG 20010904//EN"
 "http://www.w3.org/TR/2001/REC-SVG-20010904/DTD/svg10.dtd">
<svg version="1.0" xmlns="http://www.w3.org/2000/svg"
 width="700.000000pt" height="700.000000pt" viewBox="0 0 700.000000 700.000000"
 preserveAspectRatio="xMidYMid meet">
<metadata>
Created by potrace 1.11, written by Peter Selinger 2001-2013
</metadata>
<g transform="translate(0.000000,700.000000) scale(0.100000,-0.100000)"
fill="#000000" stroke="none">
<path d="M3305 6994 c-22 -2 -89 -8 -150 -14 -780 -73 -1522 -418 -2094 -975
-468 -456 -791 -1014 -954 -1650 -35 -136 -62 -281 -89 -475 -17 -128 -17
-642 0 -770 42 -306 90 -516 174 -760 385 -1118 1332 -1982 2478 -2258 312
-76 513 -96 901 -89 332 5 454 18 719 79 1325 300 2373 1376 2644 2713 55 268
61 337 61 700 0 364 -6 430 -62 705 -179 888 -712 1684 -1473 2199 -463 314
-986 508 -1555 576 -124 15 -515 28 -600 19z m413 -89 c302 -26 488 -59 740
-131 1022 -292 1872 -1082 2245 -2084 368 -988 256 -2109 -299 -2997 -149
-238 -279 -400 -493 -613 -183 -183 -322 -298 -511 -424 -456 -302 -929 -479
-1485 -553 -184 -24 -649 -24 -825 0 -474 66 -852 188 -1232 398 -863 475
-1481 1301 -1692 2259 -60 274 -70 379 -70 735 0 361 10 462 74 750 190 852
714 1612 1445 2096 449 297 957 485 1474 544 330 38 396 40 629 20z"/>
<path d="M3316 6725 c-357 -68 -661 -309 -800 -633 -64 -148 -87 -262 -87
-427 0 -289 98 -536 295 -742 198 -210 443 -320 734 -331 207 -7 360 26 534
115 315 162 528 463 577 817 35 251 -28 517 -175 743 -53 82 -215 240 -304
298 -96 62 -206 110 -328 142 -124 32 -327 40 -446 18z"/>
<path d="M2610 6635 c-171 -49 -359 -120 -498 -186 -953 -452 -1631 -1332
-1821 -2364 -41 -224 -46 -293 -45 -600 0 -259 3 -320 23 -445 23 -151 51
-287 77 -377 l15 -53 1524 0 1525 0 0 900 c0 495 -3 900 -7 900 -5 0 -49 7
-100 15 -508 82 -915 469 -1028 975 -23 104 -31 332 -15 439 46 314 213 607
458 804 42 34 32 33 -108 -8z"/>
<path d="M4315 6619 c146 -131 232 -243 311 -404 92 -188 127 -342 127 -560
-1 -408 -183 -760 -523 -1013 -152 -112 -344 -188 -562 -223 l-78 -12 0 -898
0 -899 1526 2 1527 3 13 39 c23 66 72 324 90 471 11 93 17 218 17 370 0 524
-105 977 -332 1440 -399 812 -1125 1429 -1985 1685 -206 62 -201 62 -131 -1z"/>
<path d="M420 2424 c0 -27 100 -264 171 -404 183 -364 424 -676 744 -964 286
-258 645 -477 1004 -611 119 -44 318 -107 381 -120 l35 -7 -55 48 c-220 191
-350 403 -420 684 -30 119 -38 350 -16 481 38 236 145 458 309 643 64 72 197
183 269 224 27 15 48 30 48 35 0 4 -556 7 -1235 7 -1111 0 -1235 -2 -1235 -16z"/>
<path d="M4120 2433 c1 -5 38 -33 83 -63 234 -156 424 -415 501 -684 39 -133
49 -207 49 -361 -1 -203 -44 -388 -129 -557 -71 -141 -216 -322 -324 -404 -28
-21 -45 -40 -38 -42 24 -5 290 78 433 134 678 269 1237 745 1615 1374 109 181
289 578 274 602 -7 10 -2464 10 -2464 1z"/>
<path d="M3355 2399 c-497 -72 -887 -484 -924 -977 -24 -331 89 -632 322 -859
187 -181 395 -278 649 -301 699 -65 1274 548 1163 1237 -57 346 -270 638 -582
795 -191 96 -423 134 -628 105z"/>
</g>
</svg>
